<svg width="14" height="12" viewBox="0 0 14 12" fill="none" xmlns="http://www.w3.org/2000/svg">
<g clip-path="url(#clip0_372_1541)">
<path d="M7.28315 1.30884L8.18774 2.45467L7.57024 2.79842L9.29274 4.9755H9.36857C9.9644 4.9755 10.4519 5.388 10.4519 5.89217C10.4512 6.10143 10.366 6.30419 10.2103 6.46677C10.0546 6.62936 9.83786 6.74198 9.59607 6.78592L7.40774 9.55884H9.36857V10.4755H3.9519V9.55884H6.11857L8.53982 6.47884C8.37636 6.31455 8.28626 6.10692 8.28524 5.89217C8.28524 5.75467 8.32315 5.61717 8.39357 5.49342L6.66024 3.31175C6.7794 4.08175 6.25399 4.92509 5.33315 5.43384L2.92815 2.39509C3.84357 1.87717 4.97024 1.7855 5.76649 2.16592L7.28315 1.30884ZM3.23149 3.6005L4.13065 4.74634C3.76232 4.95259 3.25315 4.87009 3.00399 4.55384C2.75482 4.23759 2.86857 3.81134 3.23149 3.6005ZM1.40607 6.158L2.5544 5.18175L2.17524 4.86092L1.0269 5.83259L1.40607 6.158ZM0.701904 3.6005H2.3269V3.14217H0.701904V3.6005ZM4.49357 6.80884V5.43384H3.9519V6.80884H4.49357Z" fill="#FFE600"/>
<path d="M7.28315 1.30884L8.18774 2.45467L7.57024 2.79842L9.29274 4.9755H9.36857C9.65589 4.9755 9.93144 5.07208 10.1346 5.24399C10.3378 5.4159 10.4519 5.64906 10.4519 5.89217C10.4512 6.10143 10.366 6.30419 10.2103 6.46677C10.0546 6.62936 9.83786 6.74198 9.59607 6.78592L7.40774 9.55884H9.36857V10.4755H3.9519V9.55884H6.11857L8.53982 6.47884C8.37636 6.31455 8.28626 6.10692 8.28524 5.89217C8.28524 5.75467 8.32315 5.61717 8.39357 5.49342L6.66024 3.31175C6.7794 4.08175 6.25399 4.92509 5.33315 5.43384L2.92815 2.39509C3.84357 1.87717 4.97024 1.7855 5.76649 2.16592L7.28315 1.30884Z" fill="black"/>
</g>
<defs>
<clipPath id="clip0_372_1541">
<rect width="13" height="11" fill="white" transform="matrix(-1 0 0 1 13.1602 0.39209)"/>
</clipPath>
</defs>
</svg>
