<svg width="9" height="11" viewBox="0 0 9 11" fill="none" xmlns="http://www.w3.org/2000/svg">
<path d="M5.1279 0.71582L6.08245 1.96582L5.43084 2.34082L7.24848 4.71582H7.32851C7.63169 4.71582 7.92247 4.82118 8.13685 5.00871C8.35124 5.19625 8.47168 5.4506 8.47168 5.71582C8.47097 5.9441 8.381 6.16529 8.21672 6.34266C8.05243 6.52003 7.82372 6.64288 7.56857 6.69082L5.25936 9.71582H7.32851V10.7158H1.61264V9.71582H3.89899L6.45398 6.35582C6.28149 6.1766 6.18642 5.95009 6.18533 5.71582C6.18533 5.56582 6.22534 5.41582 6.29965 5.28082L4.47057 2.90082C4.59632 3.74082 4.04188 4.66082 3.07019 5.21582L0.532343 1.90082C1.49832 1.33582 2.68722 1.23582 3.52746 1.65082L5.1279 0.71582ZM0.852431 3.21582L1.80126 4.46582C1.41259 4.69082 0.875295 4.60082 0.612365 4.25582C0.349435 3.91082 0.469468 3.44582 0.852431 3.21582Z" fill="black"/>
</svg>
